# xmcd
#
# Track frame offsets:
#	150
#	20633
#	41984
#	75077
#	86870
#	106890
#	123844
#	146844
#	163593
#	194230
#	207304
#	243143
#	256746
#	275171
#	292325
#	306013
#	329531
#	335599
#
# Disc length: 4806 seconds
#
# Revision: 1
# Processed by: cddbd v1.5.2PL0 Copyright (c) Steve Scherf et al.
# Submitted via: EasyCDDAExtractor 8.2.3.1
#
DISCID=1512c412
DTITLE=Various Artist - Akella Presents - Blues Instrumental - vol.20  CD1
DYEAR=2010
DGENRE=Blues
TTITLE0=DANNY JOHNSON - Sundance
TTITLE1=BERNIE MARSDEN - Au Revoir Pebble Mill
TTITLE2=GREGOR HILDEN - Sweet ´n´Sour
TTITLE3=HENRY COOPER - Wicked Wacky Blues
TTITLE4=CHRIS AARON BAND - Abigail
TTITLE5=IKE TURNER - Bi polar
TTITLE6=PHILIP SAYCE - Alchemy
TTITLE7=ROBERT RANDOLPH - Thankful 'N Thoughtful
TTITLE8=PRESTON SHANNON - Midnight In Memphis
TTITLE9=JOE BONAMASSA - Revenge of the 10 Gallon Hat
TTITLE10=GWYN ASHTON - Rest In Paradise
TTITLE11=STEVE HACKETT - A Blue Part Of Town
TTITLE12=INNES SIBUN - Angelstar
TTITLE13=PETER FRAMPTON - Double Nickels
TTITLE14=TOSCHO - Mara's Dream
TTITLE15=AMAR SUNDY - One more time
TTITLE16=SONNY BLACK and The DUKES - Raggin' the Strings
TTITLE17=BUDDAH HEAD - Jeff and His Little Buddies
EXTD=
EXTT0=
EXTT1=
EXTT2=
EXTT3=
EXTT4=
EXTT5=
EXTT6=
EXTT7=
EXTT8=
EXTT9=
EXTT10=
EXTT11=
EXTT12=
EXTT13=
EXTT14=
EXTT15=
EXTT16=
EXTT17=
PLAYORDER=
